# xmcd
#
# Track frame offsets: 
#        150
#        20390
#        34192
#        53677
#        75955
#        92802
#        112070
#        131752
#        147075
#        165975
#        187202
#        210425
#        233817
#
# Disc length: 3390 seconds
#
# Revision: 12
# Processed by: cddbd v1.5.2PL0 Copyright (c) Steve Scherf et al.
# Submitted via: ExactAudioCopy v0.99pb4
#
DISCID=a60d3c0d
DTITLE=Garth Brooks - Chris Gaines Greatest Hits
DYEAR=1999
DGENRE=Soundtrack
TTITLE0=That's The Way I Remember It
TTITLE1=Lost In You
TTITLE2=Snow In July
TTITLE3=Driftin' Away
TTITLE4=Way Of The Girl
TTITLE5=Unsigned Letter
TTITLE6=It Don't Matter To The Sun
TTITLE7=Right Now
TTITLE8=Main Street
TTITLE9=White Flag
TTITLE10=Digging For Gold
TTITLE11=Maybe
TTITLE12=My Love Tells Me So
EXTD=Capitol Records.\nProduced by Don Was.\nThe Pre-Soundtrack To The
EXTD=Movie "The Lamb"\nThis is not a Garth Brooks record! YEAR: 1999
EXTT0=
EXTT1=Great song!!
EXTT2=
EXTT3=
EXTT4=
EXTT5=
EXTT6=
EXTT7=
EXTT8=
EXTT9=
EXTT10=
EXTT11=
EXTT12=
PLAYORDER=
